/* XPM */
static char *d2d5183c4ad14c38b6cac9be7596d844[] = {
/* columns rows colors chars-per-pixel */
"64 64 245 2 ",
"   c black",
".  c #010101",
"X  c #020202",
"o  c gray1",
"O  c #040404",
"+  c gray2",
"@  c #060606",
"#  c #070707",
"$  c gray3",
"%  c #090909",
"&  c gray4",
"*  c #0B0B0B",
"=  c #0C0C0C",
"-  c gray5",
";  c #0E0E0E",
":  c gray6",
">  c #101010",
",  c #111111",
"<  c gray7",
"1  c #131313",
"2  c gray8",
"3  c #151515",
"4  c #161616",
"5  c gray9",
"6  c #181818",
"7  c #191919",
"8  c gray10",
"9  c #1B1B1B",
"0  c gray11",
"q  c #1D1D1D",
"w  c #1E1E1E",
"e  c gray12",
"r  c #202020",
"t  c gray13",
"y  c #222222",
"u  c #232323",
"i  c gray14",
"p  c #252525",
"a  c gray15",
"s  c #272727",
"d  c #282828",
"f  c gray16",
"g  c #2A2A2A",
"h  c gray17",
"j  c #2C2C2C",
"k  c #2D2D2D",
"l  c gray18",
"z  c #2F2F2F",
"x  c gray19",
"c  c #313131",
"v  c #323232",
"b  c gray20",
"n  c #343434",
"m  c #353535",
"M  c gray21",
"N  c #373737",
"B  c gray22",
"V  c #393939",
"C  c #3A3A3A",
"Z  c gray23",
"A  c #3C3C3C",
"S  c gray24",
"D  c #3E3E3E",
"F  c #3F3F3F",
"G  c #414141",
"H  c gray26",
"J  c #434343",
"K  c #444444",
"L  c gray27",
"P  c #464646",
"I  c gray28",
"U  c #484848",
"Y  c #494949",
"T  c gray29",
"R  c #4B4B4B",
"E  c gray30",
"W  c #4E4E4E",
"Q  c gray31",
"!  c #505050",
"~  c #515151",
"^  c gray32",
"/  c gray33",
"(  c #565656",
")  c gray34",
"_  c #585858",
"`  c gray35",
"'  c #5A5A5A",
"]  c #5B5B5B",
"[  c gray36",
"{  c #5D5D5D",
"}  c gray37",
"|  c #5F5F5F",
" . c #606060",
".. c gray38",
"X. c #626262",
"o. c gray39",
"O. c #646464",
"+. c gray40",
"@. c #676767",
"#. c #686868",
"$. c DimGray",
"%. c #6A6A6A",
"&. c gray42",
"*. c #6C6C6C",
"=. c #6D6D6D",
"-. c gray43",
";. c #6F6F6F",
":. c gray44",
">. c #717171",
",. c #727272",
"<. c gray45",
"1. c #747474",
"2. c gray46",
"3. c #767676",
"4. c #777777",
"5. c gray47",
"6. c #797979",
"7. c gray48",
"8. c #7B7B7B",
"9. c #7C7C7C",
"0. c gray49",
"q. c #7E7E7E",
"w. c gray50",
"e. c #808080",
"r. c #818181",
"t. c gray51",
"y. c #838383",
"u. c #848484",
"i. c gray52",
"p. c #868686",
"a. c gray53",
"s. c #888888",
"d. c #898989",
"f. c gray54",
"g. c #8B8B8B",
"h. c gray55",
"j. c #8D8D8D",
"k. c #8E8E8E",
"l. c gray56",
"z. c #909090",
"x. c #929292",
"c. c #939393",
"v. c gray58",
"b. c #959595",
"n. c gray59",
"m. c #979797",
"M. c #989898",
"N. c gray60",
"B. c #9A9A9A",
"V. c #9B9B9B",
"C. c gray61",
"Z. c #9D9D9D",
"A. c gray62",
"S. c #9F9F9F",
"D. c #A0A0A0",
"F. c gray63",
"G. c gray64",
"H. c #A4A4A4",
"J. c #A5A5A5",
"K. c #A7A7A7",
"L. c gray66",
"P. c #A9A9A9",
"I. c #AAAAAA",
"U. c gray67",
"Y. c #ACACAC",
"T. c gray68",
"R. c #AEAEAE",
"E. c #AFAFAF",
"W. c #B2B2B2",
"Q. c gray70",
"!. c #B4B4B4",
"~. c gray71",
"^. c #B6B6B6",
"/. c #B7B7B7",
"(. c gray72",
"). c #B9B9B9",
"_. c #BBBBBB",
"`. c #BCBCBC",
"'. c gray74",
"]. c gray",
"[. c gray75",
"{. c #C0C0C0",
"}. c #C1C1C1",
"|. c gray76",
" X c #C3C3C3",
".X c gray77",
"XX c #C5C5C5",
"oX c #C6C6C6",
"OX c gray78",
"+X c #C8C8C8",
"@X c gray79",
"#X c #CACACA",
"$X c #CBCBCB",
"%X c gray80",
"&X c #CDCDCD",
"*X c #CECECE",
"=X c gray81",
"-X c #D0D0D0",
";X c gray82",
":X c #D2D2D2",
">X c LightGray",
",X c gray83",
"<X c #D5D5D5",
"1X c gray84",
"2X c #D7D7D7",
"3X c #D8D8D8",
"4X c gray85",
"5X c #DADADA",
"6X c gray86",
"7X c gainsboro",
"8X c #DDDDDD",
"9X c gray87",
"0X c #DFDFDF",
"qX c gray88",
"wX c #E1E1E1",
"eX c #E2E2E2",
"rX c gray89",
"tX c #E4E4E4",
"yX c gray90",
"uX c #E6E6E6",
"iX c #E7E7E7",
"pX c gray91",
"aX c #E9E9E9",
"sX c #EAEAEA",
"dX c gray92",
"fX c #ECECEC",
"gX c gray93",
"hX c #EEEEEE",
"jX c #EFEFEF",
"kX c gray94",
"lX c #F1F1F1",
"zX c gray95",
"xX c #F3F3F3",
"cX c #F4F4F4",
"vX c gray96",
"bX c #F6F6F6",
"nX c gray97",
"mX c #F8F8F8",
"MX c #F9F9F9",
"NX c gray98",
"BX c #FBFBFB",
"VX c gray99",
"CX c #FDFDFD",
"ZX c #FEFEFE",
"AX c gray100",
/* pixels */
"AXAXAXAXAXAXAXAXAXAXAXAXAXAXAXAXAXAXAXAXAXAXAXAXAXAXAXAXAXAXAXAXAXAXAXAXAXAXAXAXAXAXAXAXAXAXAXAXAXAXAXAXAXAXAXAXAXAXAXAXAXAXAXAX",
"AXAXAXAXAXAXAXAXAXAXAXAXAXAXAXAXAXAXAXAXAXAXAXAXAXAXAXAXAXAXAXAXAXAXAXAXAXAXAXAXAXAXAXAXAXAXAXAXAXAXAXAXAXAXAXAXAXAXAXAXAXAXAXAX",
"AXAXAXAXAXAXAXAXAXAXAXAXAXAXAXAXAXAXAXAXAXAXAXAXAXAXAXAXAXAXAXAXAXAXAXAXAXAXAXAXAXAXAXAXAXAXAXAXAXAXAXAXAXAXAXAXAXAXAXAXAXAXAXAX",
"AXAXAXAXAXAXAXAXAXAXAXAXAXAXAXAXAXAXAXAXAXAXAXAXAXAXAXAXAXAXAXAXAXAXAXAXAXAXAXAXAXAXAXAXAXAXAXAXAXAXAXAXAXAXAXAXAXAXAXAXAXAXAXAX",
"AXAXAXAXAXAXAXAXAXAXAXAXAXAXAXAXAXAXAXAXAXAXAXAXAXAXAXAXAXAXAXAXAXAXAXAXAXAXAXAXAXAXAXAXAXAXAXAXAXAXAXAXAXAXAXAXAXAXAXAXAXAXAXAX",
"AXAXAXAXAXAXAXAXAXAXAXAXAXAXAXAXAXAXAXAXAXAXAXAXAXAXAXAXAXAXAXAXAXAXAXAXAXAXAXAXAXAXAXAXAXAXAXAXAXAXAXAXAXAXAXAXAXAXAXAXAXAXAXAX",
"AXAXAXAXAXAXAXAXAXAXAXAXAXAXAXAXAXAXAXAXAXAXAXAXAXAXAXAXAXAXAXAXAXAXAXAXAXAXAXAXAXAXAXAXAXAXAXAXAXAXAXAXAXAXAXAXAXAXAXAXAXAXAXAX",
"AXAXAXAXAXAXAXAXAXAXAXAXAXAXAXAXAXAXAXAXAXAXNXNXkXkXgXkXgXkXnXNXAXAXAXAXAXAXAXAXAXAXAXAXAXAXAXAXAXAXAXAXAXAXAXAXAXAXAXAXAXAXAXAX",
"AXAXAXAXAXAXAXAXAXAXAXAXAXAXAXAXAXAXAXAXNXnXgXrX4X:X=X=X:X<XrXpXkXNXAXAXAXAXAXAXAXAXAXAXAXAXAXAXAXAXAXAXAXAXAXAXAXAXAXAXAXAXAXAX",
"AXAXAXAXAXAXAXAXAXAXAXAXAXAXAXAXAXAXNXNXgXrX:X'.T.G.M.n.Z.K.~.+X0XpXnXAXAXAXAXAXAXAXAXAXAXAXAXAXAXAXAXAXAXAXAXAXAXAXAXAXAXAXAXAX",
"AXAXAXAXAXAXAXAXAXAXAXAXAXAXAXAXAXAXNXgX0X.XU.g.7.O.X.` O.;.r.M.~.=XiXkXNXAXAXAXAXAXAXAXAXAXAXAXAXAXAXAXAXAXAXAXAXAXAXAXAXAXAXAX",
"AXAXAXAXAXAXAXAXAXAXAXAXAXAXAXAXAXAXgX4X'.n.2.( G k f s k M W O.g.T.+XiXnXAXAXAXAXAXAXAXAXAXAXAXAXAXAXAXAXAXAXAXAXAXAXAXAXAXAXAX",
"AXAXAXAXAXAXAXAXAXAXAXAXAXAXAXAXAXnX0X|.M.#.I s 8 , : $ : , r M ( q.U.=XpXNXAXAXAXAXAXAXAXAXAXAXAXAXAXAXAXAXAXAXAXAXAXAXAXAXAXAX",
"AXAXAXAXAXAXAXAXAXAXAXAXAXAXAXAXNXpX.XM.;.S e : O O O X X X $ 2 k ( p.W.0XkXNXAXAXAXAXAXAXAXAXAXAXAXAXAXAXAXAXAXAXAXAXAXAXAXAXAX",
"AXAXAXAXAXAXAXAXAXAXAXAXAXAXAXAXnX<XU.7.I r : X X X X X X X X O 2 c X.n..XiXNXAXAXAXAXAXAXAXAXAXAXAXAXAXAXAXAXAXAXAXAXAXAXAXAXAX",
"AXAXAXAXAXAXAXAXAXAXAXAXAXAXAXNXpX|.z.` f , X X X X X X X X X X $ e I 2.T.0XnXAXAXAXAXAXAXAXAXAXAXAXAXAXAXAXAXAXAXAXAXAXAXAXAXAX",
"AXAXAXAXAXAXAXAXAXAXAXAXAXAXAXnX4XT.2.G 8 $ X X X X X X X X X X O , k X.M.=XgXAXAXAXAXAXAXAXAXAXAXAXAXAXAXAXAXAXAXAXAXAXAXAXAXAX",
"AXAXAXAXAXAXAXAXAXAXAXAXAXAXAXgX+Xn.} k : O X X X X X X X X X X X $ r W g.|.pXNXAXAXAXAXAXAXAXAXAXAXAXAXAXAXAXAXAXAXAXAXAXAXAXAX",
"AXAXAXAXAXAXAXAXAXAXAXAXAXAXNXiX'.r.Y e O X X X X X X X X X X X X O 8 G 7.W.rXNXAXAXAXAXAXAXAXAXAXAXAXAXAXAXAXAXAXAXAXAXAXAXAXAX",
"AXAXAXAXAXAXAXAXAXAXAXAXAXAXnX0XT.>.Z 2 O X X X X X X X X X X X X O , M #.K.<XnXAXAXAXAXAXAXAXAXAXAXAXAXAXAXAXAXAXAXAXAXAXAXAXAX",
"AXAXAXAXAXAXAXAXAXAXAXAXAXAXkX<XG.X.k : O X X X X X X X X X X X X X : k X.Z.<XnXAXAXAXAXAXAXAXAXAXAXAXAXAXAXAXAXAXAXAXAXAXAXAXAX",
"AXAXAXAXAXAXAXAXAXAXAXAXAXAXkX=Xn.` f : O X X X X X X X X X X X X X $ f } M.=XgXAXAXAXAXAXAXAXAXAXAXAXAXAXAXAXAXAXAXAXAXAXAXAXAX",
"AXAXAXAXAXAXAXAXAXAXAXAXAXAXpX+Xk.! r $ X X X X X X X X X X X X X O : s ` z.=XkXAXAXAXAXAXAXAXAXAXAXAXAXAXAXAXAXAXAXAXAXAXAXAXAX",
"AXAXAXAXAXAXAXAXAXAXAXAXAXNXgX.Xp.W r O X X X X X X X X X X X X X X $ s ( n.=XgXNXAXAXAXAXAXAXAXAXAXAXAXAXAXAXAXAXAXAXAXAXAXAXAX",
"AXAXAXAXAXAXAXAXAXAXAXAXAXAXpX'.r.I e O X X X X X X X X X X X X X X $ f X.M.:XkXNXAXAXAXAXAXAXAXAXAXAXAXAXAXAXAXAXAXAXAXAXAXAXAX",
"AXAXAXAXAXAXAXAXAXAXAXAXAXNXiX).7.G e O X X X X X X X X X X X X X X : f X.G.<XnXAXAXAXAXAXAXAXAXAXAXAXAXAXAXAXAXAXAXAXAXAXAXAXAX",
"AXAXAXAXAXAXAXAXAXAXAXAXAXAXrXW.2.S 2 O X X X X X X X X X X X X X X : c #.U.0XnXAXAXAXAXAXAXAXAXAXAXAXAXAXAXAXAXAXAXAXAXAXAXAXAX",
"AXAXAXAXAXAXAXAXAXAXAXAXAXNX0XT.;.Z 2 O X X X X X X X X X X X X X X : k ;.W.iXNXAXAXAXAXAXAXAXAXAXAXAXAXAXAXAXAXAXAXAXAXAXAXAXAX",
"AXAXAXAXAXAXAXAXAXAXAXAXAXnX4XG.#.c , O X X X X X X X X X X X X X X : k ;.~.gXAXAXAXAXAXAXAXAXAXAXAXAXAXAXAXAXAXAXAXAXAXAXAXAXAX",
"AXAXAXAXAXAXAXAXAXAXAXAXAXnX:XZ.} k : O X X X X X X X X X X X X X X $ f O.~.gXAXAXAXAXAXAXAXAXAXAXAXAXAXAXAXAXAXAXAXAXAXAXAXAXAX",
"AXAXAXAXAXAXAXAXAXAXAXAXAXkX=Xn.` f : X X X X X X X X X X X X X X X O s X.~.gXAXAXAXAXAXAXAXAXAXAXAXAXAXAXAXAXAXAXAXAXAXAXAXAXAX",
"AXAXAXAXAXAXAXAXAXAXAXAXNXgX+Xz.! r $ X X X X X X X X X X X X X X X O e ( T.pXAXAXAXAXAXAXAXAXAXAXAXAXAXAXAXAXAXAXAXAXAXAXAXAXAX",
"AXAXAXAXAXAXAXAXAXAXAXAXAXgX.Xg.! s $ X X X X X X X X X X X X X X X O 2 ! K.rXNXAXAXAXAXAXAXAXAXAXAXAXAXAXAXAXAXAXAXAXAXAXAXAXAX",
"AXAXAXAXAXAXAXAXAXAXAXAXAXpX|.p.Y r $ X X X X X X X X X X X X X X X X 2 Y n.4XNXAXAXAXAXAXAXAXAXAXAXAXAXAXAXAXAXAXAXAXAXAXAXAXAX",
"AXAXAXAXAXAXAXAXAXAXAXAXAXpX|.p.W r $ X X X X X X X X X X X X X X X X , S k.<XnXAXAXAXAXAXAXAXAXAXAXAXAXAXAXAXAXAXAXAXAXAXAXAXAX",
"AXAXAXAXAXAXAXAXAXAXAXAXAXpX'.r.I 8 O X X X X X X X X X X X X X X X X $ M r..XgXAXAXAXAXAXAXAXAXAXAXAXAXAXAXAXAXAXAXAXAXAXAXAXAX",
"AXAXAXAXAXAXAXAXAXAXAXAXAXpX).q.G 8 O X X X X X X X X X X X X X X X X $ c 2.'.iXNXAXAXAXAXAXAXAXAXAXAXAXAXAXAXAXAXAXAXAXAXAXAXAX",
"AXAXAXAXAXAXAXAXAXAXAXAXNXrX~.7.S 8 O X X X X X X X X X X X X X X X X $ s O.K.:XpXnXnXNXAXAXAXAXAXAXAXAXAXAXAXAXAXAXAXAXAXAXAXAX",
"AXAXAXAXAXAXAXAXAXAXAXNXNX0XT.>.S 2 O X X X X X X X X X X X X X X X X O e W p.T..X4XrXpXkXNXNXAXAXAXAXAXAXAXAXAXAXAXAXAXAXAXAXAX",
"AXAXAXAXAXAXNXAXNXnXkXgXiX+XZ.X.c , O X X X X X X X X X X X X X X X X O , c ` 7.n.T.'.:XiXgXnXAXAXAXAXAXAXAXAXAXAXAXAXAXAXAXAXAX",
"AXAXAXAXAXAXnXgXiX4X=X.X'.K.q.W f : X X X X X X X X X X X X X X X X X X $ e k G } >.g.U..X0XgXNXNXAXAXAXAXAXAXAXAXAXAXAXAXAXAXAX",
"AXAXAXAXNXkXrX:X).K.M.g.q.;.( Z 8 $ X X X X X X X X X X X X X X X X X X X $ , 8 s Z ! 2.Z.|.0XkXNXAXAXAXAXAXAXAXAXAXAXAXAXAXAXAX",
"AXAXAXNXgX4X'.G.p.;.} W I S c r , $ X X X X X X X X X X X X X X X X X X X X X X $ 2 s G ;.M.|.iXnXNXAXAXAXAXAXAXAXAXAXAXAXAXAXAX",
"AXAXNXgX:XW.g.;.W M f r 8 2 , : $ O X X X X X X X X X X X X X X X X X X X X X X X X : e G >.K.:XgXNXAXAXAXAXAXAXAXAXAXAXAXAXAXAX",
"AXAXgX4XW.g.} Z r 2 : $ O O O X X X X X X X X X X X X X X X X X X X X X X X X X X X X : r W r.~.0XnXAXAXAXAXAXAXAXAXAXAXAXAXAXAX",
"AXnX0X).g.} c 2 $ X X X X X X X X X X X X X X X X O X X X X X X X X X X X X X X X X X X , k X.M.+XgXAXAXAXAXAXAXAXAXAXAXAXAXAXAX",
"NXpX.XM.O.Z 8 O X X X X X X X X X X X X X X X X O $ O X X X X X X X X X X X X X X X X X $ e G 7.T.4XkXAXAXAXAXAXAXAXAXAXAXAXAXAX",
"nX4XT.2.I e $ O X X X X X X X X X X X X X X X X O : $ X X X X X X X X X X X X X X X X X O , k ` z.|.iXAXAXAXAXAXAXAXAXAXAXAXAXAX",
"pX+Xn.} k , X X X X X X X X X X X X X X X X X O : 8 , $ X X X X X X X X X X X X X X X X X O 8 S >.U.<XkXAXAXAXAXAXAXAXAXAXAXAXAX",
"iX~.q.I e $ X X X X X X X X X X X X X X X X X : 8 r r , O X X X X X X X X X X X X X X X X X : f ` k.|.iXnXAXAXAXAXAXAXAXAXAXAXAX",
"4XU.>.Z , O X X X X X X X X X X X X X X X X X , s c f 2 O X X X X X X X X X X X X X X X X X O 8 S 2.T.<XnXAXAXAXAXAXAXAXAXAXAXAX",
"<XZ.X.k : X X X X X X X X X X X X X X X X X $ 8 c G M e O X X X X X X X X X X X X X X X X X X : k } n.=XpXNXAXAXAXAXAXAXAXAXAXAX",
"=XM.` f : X X X X X X X X X X X X X X X X O $ s I ! S r : X X X X X X X X X X X X X X X X X X $ r W p.|.iXNXAXAXAXAXAXAXAXAXAXAX",
"+Xn.` s $ X X X X X X X X X X X X X X X X O 2 k ( X.W k : X X X X X X X X X X X X X X X X X X O 8 I q.).rXNXAXAXAXAXAXAXAXAXAXAX",
"=Xn.` f : X X X X X X X X X X X X X X X X O e I ;.2.} M , O X X X X X X X X X X X X X X X X O O 2 G q.~.rXnXAXAXAXAXAXAXAXAXAXAX",
":XZ.O.k : X X X X X X X X X X X X X X X O , c } p.k.2.Y e $ X X X X X X X X X X X X X X X X X O 8 G q.~.rXnXAXAXAXAXAXAXAXAXAXAX",
"<XU.;.Z 2 O X X X X X X X X X X X X X O : s W r.K.T.z.} c , O X X X X X X X X X X X X X X X X $ e W g.'.iXNXAXAXAXAXAXAXAXAXAXAX",
"0X~.p.W s $ X X X X X X X X X X X O X $ e G >.Z.|.+XT.q.Y r : O X X X X X X X X X X X X X X X : f ` n.+XpXNXAXAXAXAXAXAXAXAXAXAX",
"pX+XZ.#.Z 2 $ O X X X X X X X X X O , r G #.M.|.0XrX.XZ.;.S 8 $ X O X X X X X X X X X X X X O 8 G 2.U.<XkXAXAXAXAXAXAXAXAXAXAXAX",
"kX0X~.g.} c 2 : X X X X X X O O , 2 k I ;.n.'.0XkXkXrX'.z.X.Z e $ O X X X X X X X X X X X O , k ` g.'.iXNXAXAXAXAXAXAXAXAXAXAXAX",
"AXpX:XT.r.} Z r 2 , : $ $ : , 8 f S ` 7.Z.'.0XkXAXAXkX<X).k.X.S r , O X X X X X X X X X O , s W q.U.<XkXAXAXAXAXAXAXAXAXAXAXAXAX",
"AXnXiX=XT.k.O.! Z k s f s k c I ( >.k.T.+XrXnXAXAXAXAXgX4X).k.#.I k 8 : O O X X X O O $ 2 f Y >.Z.+XiXNXAXAXAXAXAXAXAXAXAXAXAXAX",
"AXAXkXiX:X~.M.p.;.X.` ` ` X.#.q.z.U.|.<XpXNXAXAXAXAXAXNXgX4X'.Z.7.` S f e 2 : : : , 2 s Z ! 2.Z..XrXnXAXAXAXAXAXAXAXAXAXAXAXAXAX",
"AXAXAXnXgX4X=X).U.Z.n.z.n.M.K.~..X<XrXnXNXAXAXAXAXAXAXAXAXkXrX.XU.k.;.` I Z k k f M S ! O.p.K..X0XkXAXAXAXAXAXAXAXAXAXAXAXAXAXAX"
};
